<?xml version="1.0" standalone="no"?>
<!DOCTYPE svg PUBLIC "-//W3C//DTD SVG 20010904//EN"
 "http://www.w3.org/TR/2001/REC-SVG-20010904/DTD/svg10.dtd">
<svg version="1.0" xmlns="http://www.w3.org/2000/svg"
 width="1920.000000pt" height="1200.000000pt" viewBox="0 0 1920.000000 1200.000000"
 preserveAspectRatio="xMidYMid meet">

<g transform="translate(0.000000,1200.000000) scale(0.100000,-0.100000)"
fill="#000000" stroke="none">
<path d="M18599 11971 c54 -75 194 -178 303 -223 77 -31 197 -58 258 -58 l40
0 0 59 0 59 -62 7 c-130 15 -255 67 -350 146 -46 38 -48 39 -128 39 l-81 0 20
-29z"/>
<path d="M16658 9524 c-205 -49 -374 -220 -423 -427 -9 -40 -15 -115 -15 -213
0 -134 2 -153 18 -167 24 -22 65 -21 85 1 14 15 17 42 17 150 0 72 5 155 11
184 49 235 287 401 514 360 125 -24 220 -81 294 -180 71 -93 83 -141 91 -362
6 -158 12 -206 29 -253 87 -244 302 -397 557 -397 91 0 158 16 253 62 115 55
204 144 259 259 53 110 62 161 62 338 0 131 -2 150 -18 164 -24 22 -65 21 -85
-1 -14 -15 -17 -41 -17 -144 0 -155 -10 -214 -55 -304 -84 -172 -285 -277
-472 -246 -98 16 -200 70 -263 138 -100 110 -130 207 -130 424 0 154 -13 220
-63 320 -44 89 -160 204 -248 247 -123 61 -274 78 -401 47z"/>
</g>
</svg>
